<svg width="60" height="60" viewBox="0 0 60 60" fill="none" xmlns="http://www.w3.org/2000/svg">
<path d="M53.7896 26.31C52.8644 27.2766 51.7295 28.0176 50.4724 28.4758C49.2153 28.934 47.8697 29.0971 46.5396 28.9525H39.3571C33.8421 28.9525 31.0471 25.8325 31.0471 19.6775V13.4525C30.9022 12.1226 31.0649 10.7771 31.5226 9.52002C31.9804 8.26295 32.7209 7.12789 33.6871 6.2025C35.6571 4.7275 38.5021 4.61 42.6371 5.8175C45.358 6.64995 47.8331 8.13744 49.8451 10.1495C51.8571 12.1615 53.3446 14.6366 54.1771 17.3575C55.3871 21.5 55.2646 24.3425 53.7896 26.31ZM44.6921 32.2275H35.7496C33.6338 32.2275 31.6047 31.387 30.1086 29.8909C28.6126 28.3949 27.7721 26.3658 27.7721 24.25V15.3075C27.7717 14.8219 27.6684 14.3419 27.4688 13.8992C27.2693 13.4565 26.978 13.0612 26.6144 12.7394C26.2507 12.4176 25.823 12.1766 25.3593 12.0323C24.8956 11.888 24.4066 11.8438 23.9246 11.9025C20.9875 12.2889 18.1601 13.2703 15.6154 14.7869C13.0706 16.3034 10.862 18.3231 9.12457 20.7225C7.379 23.1104 6.1463 25.8336 5.50396 28.721C4.86161 31.6083 4.82352 34.5973 5.39207 37.5C6.2196 41.7293 8.28921 45.6158 11.3365 48.6631C14.3837 51.7104 18.2703 53.78 22.4996 54.6075C23.8676 54.8679 25.257 54.9993 26.6496 55C31.1908 55.0012 35.6145 53.5565 39.2796 50.875C41.6781 49.1369 43.697 46.9281 45.2131 44.3834C46.7291 41.8387 47.7104 39.0117 48.0971 36.075C48.1558 35.593 48.1115 35.104 47.9673 34.6403C47.823 34.1766 47.582 33.7488 47.2602 33.3852C46.9384 33.0215 46.5431 32.7303 46.1004 32.5308C45.6577 32.3312 45.1777 32.2278 44.6921 32.2275Z" fill="#4A3AFF"/>
</svg>
