<svg width="40" height="40" viewBox="0 0 40 40" fill="none" xmlns="http://www.w3.org/2000/svg">
<path d="M36.6673 2.08334H3.33398C3.00246 2.08334 2.68452 2.21504 2.4501 2.44946C2.21568 2.68388 2.08398 3.00182 2.08398 3.33334C2.08398 3.66486 2.21568 3.98281 2.4501 4.21723C2.68452 4.45165 3.00246 4.58334 3.33398 4.58334H5.00065V23.5C4.91621 24.1548 4.98308 24.8202 5.19612 25.4451C5.40916 26.07 5.76269 26.6376 6.22952 27.1045C6.69635 27.5713 7.26403 27.9248 7.88891 28.1379C8.51379 28.3509 9.17921 28.4178 9.83398 28.3333H18.7507V32.5667L12.784 35.55C12.6341 35.621 12.5001 35.7214 12.39 35.8453C12.2798 35.9692 12.1958 36.1141 12.1429 36.2712C12.09 36.4284 12.0693 36.5946 12.0821 36.7599C12.0949 36.9252 12.1409 37.0862 12.2173 37.2333C12.3225 37.439 12.4825 37.6116 12.6795 37.7322C12.8765 37.8527 13.103 37.9166 13.334 37.9167C13.525 37.9141 13.713 37.8685 13.884 37.7833L20.0007 34.7333L26.1173 37.7833C26.2883 37.8685 26.4763 37.9141 26.6673 37.9167C26.8983 37.9166 27.1248 37.8527 27.3218 37.7322C27.5188 37.6116 27.6788 37.439 27.784 37.2333C27.8604 37.0862 27.9064 36.9252 27.9192 36.7599C27.932 36.5946 27.9113 36.4284 27.8584 36.2712C27.8055 36.1141 27.7215 35.9692 27.6113 35.8453C27.5012 35.7214 27.3672 35.621 27.2173 35.55L21.2507 32.5667V28.3333H30.1673C30.8221 28.4178 31.4875 28.3509 32.1124 28.1379C32.7373 27.9248 33.305 27.5713 33.7718 27.1045C34.2386 26.6376 34.5921 26.07 34.8052 25.4451C35.0182 24.8202 35.0851 24.1548 35.0007 23.5V4.58334H36.6673C36.9988 4.58334 37.3168 4.45165 37.5512 4.21723C37.7856 3.98281 37.9173 3.66486 37.9173 3.33334C37.9173 3.00182 37.7856 2.68388 37.5512 2.44946C37.3168 2.21504 36.9988 2.08334 36.6673 2.08334ZM28.3007 14.2933L23.049 18.6667C22.817 18.8596 22.5466 19.0009 22.2558 19.0814C21.965 19.1618 21.6605 19.1796 21.3623 19.1333C21.0652 19.08 20.7831 18.963 20.5354 18.7904C20.2877 18.6178 20.0803 18.3936 19.9273 18.1333L18.179 15.2283L13.3007 19.2933C13.045 19.4962 12.7202 19.591 12.3956 19.5576C12.071 19.5241 11.7723 19.3651 11.5634 19.1144C11.3545 18.8637 11.2519 18.5412 11.2776 18.2159C11.3032 17.8906 11.455 17.5882 11.7007 17.3733L16.9523 13C17.1818 12.8034 17.4517 12.6597 17.7429 12.5791C18.0341 12.4985 18.3395 12.4829 18.6373 12.5335C18.9352 12.5841 19.2184 12.6996 19.4666 12.8718C19.7149 13.044 19.9223 13.2687 20.074 13.53L21.8223 16.4433L26.7007 12.3733C26.9563 12.1705 27.2811 12.0757 27.6057 12.1091C27.9303 12.1426 28.229 12.3016 28.4379 12.5523C28.6468 12.803 28.7494 13.1255 28.7237 13.4508C28.6981 13.7761 28.5463 14.0785 28.3007 14.2933Z" fill="#4A3AFF"/>
</svg>
