<svg width="40" height="40" viewBox="0 0 40 40" fill="none" xmlns="http://www.w3.org/2000/svg">
<path d="M13.0227 3.33334H26.976C33.0427 3.33334 36.666 6.95501 36.666 13.0233V26.9767C36.666 33.045 33.0427 36.6667 26.976 36.6667H13.0227C6.95601 36.6667 3.33268 33.045 3.33268 26.9767V13.0233C3.33268 6.95501 6.95601 3.33334 13.0227 3.33334ZM11.231 16.6083L15.086 21.5833C15.3223 21.8866 15.6161 22.1402 15.9506 22.3295C16.2852 22.5189 16.6538 22.6403 17.0354 22.6867C17.417 22.7332 17.8041 22.7038 18.1743 22.6003C18.5445 22.4967 18.8906 22.321 19.1927 22.0833L22.2393 19.6917C22.2825 19.6577 22.332 19.6326 22.3849 19.618C22.4379 19.6034 22.4932 19.5996 22.5477 19.6067C22.6025 19.6134 22.6554 19.6308 22.7034 19.658C22.7515 19.6851 22.7937 19.7215 22.8277 19.765L26.7893 24.92C26.8878 25.0547 27.0121 25.1683 27.1552 25.2542C27.2982 25.34 27.4569 25.3964 27.622 25.42C27.7872 25.4435 27.9554 25.4338 28.1167 25.3913C28.278 25.3489 28.4292 25.2746 28.5613 25.1728C28.6935 25.071 28.8039 24.9438 28.8862 24.7987C28.9684 24.6536 29.0207 24.4934 29.0401 24.3278C29.0595 24.1621 29.0455 23.9942 28.999 23.834C28.9525 23.6738 28.8744 23.5246 28.7693 23.395L24.8077 18.2467C24.5726 17.9412 24.2793 17.6853 23.9447 17.4938C23.6101 17.3024 23.2409 17.1791 22.8584 17.1312C22.4759 17.0833 22.0877 17.1117 21.7163 17.2148C21.3448 17.3179 20.9975 17.4935 20.6943 17.7317L17.6493 20.1233C17.5611 20.1913 17.45 20.2223 17.3393 20.21C17.2848 20.2033 17.2321 20.1858 17.1844 20.1586C17.1366 20.1315 17.0947 20.0951 17.061 20.0517L13.2077 15.0767C13.0046 14.8146 12.7057 14.6439 12.3767 14.6021C12.0477 14.5604 11.7156 14.6511 11.4535 14.8542C11.1914 15.0573 11.0207 15.3562 10.979 15.6852C10.9372 16.0141 11.0279 16.3462 11.231 16.6083Z" fill="#4A3AFF"/>
</svg>
