<svg width="40" height="40" viewBox="0 0 40 40" fill="none" xmlns="http://www.w3.org/2000/svg">
<path d="M26.9773 3.33331H13.024C6.95732 3.33331 3.33398 6.95498 3.33398 13.0233V26.9766C3.33398 33.045 6.95732 36.6666 13.024 36.6666H26.9773C33.044 36.6666 36.6673 33.045 36.6673 26.9766V13.0233C36.6673 6.95498 33.044 3.33331 26.9773 3.33331ZM12.7157 30.2516C12.7157 30.5832 12.584 30.9011 12.3495 31.1355C12.1151 31.37 11.7972 31.5016 11.4657 31.5016C11.1341 31.5016 10.8162 31.37 10.5818 31.1355C10.3473 30.9011 10.2157 30.5832 10.2157 30.2516V26.7983C10.2157 26.4668 10.3473 26.1489 10.5818 25.9144C10.8162 25.68 11.1341 25.5483 11.4657 25.5483C11.7972 25.5483 12.1151 25.68 12.3495 25.9144C12.584 26.1489 12.7157 26.4668 12.7157 26.7983V30.2516ZM21.2507 30.2516C21.2507 30.5832 21.119 30.9011 20.8845 31.1355C20.6501 31.37 20.3322 31.5016 20.0007 31.5016C19.6691 31.5016 19.3512 31.37 19.1168 31.1355C18.8823 30.9011 18.7507 30.5832 18.7507 30.2516V23.3433C18.7507 23.0118 18.8823 22.6939 19.1168 22.4594C19.3512 22.225 19.6691 22.0933 20.0007 22.0933C20.3322 22.0933 20.6501 22.225 20.8845 22.4594C21.119 22.6939 21.2507 23.0118 21.2507 23.3433V30.2516ZM29.7857 30.2516C29.7857 30.5832 29.654 30.9011 29.4195 31.1355C29.1851 31.37 28.8672 31.5016 28.5357 31.5016C28.2041 31.5016 27.8862 31.37 27.6518 31.1355C27.4173 30.9011 27.2857 30.5832 27.2857 30.2516V19.89C27.2857 19.5585 27.4173 19.2405 27.6518 19.0061C27.8862 18.7717 28.2041 18.64 28.5357 18.64C28.8672 18.64 29.1851 18.7717 29.4195 19.0061C29.654 19.2405 29.7857 19.5585 29.7857 19.89V30.2516ZM29.7857 14.6233C29.7857 14.9548 29.654 15.2728 29.4195 15.5072C29.1851 15.7416 28.8672 15.8733 28.5357 15.8733C28.2041 15.8733 27.8862 15.7416 27.6518 15.5072C27.4173 15.2728 27.2857 14.9548 27.2857 14.6233V13C23.049 17.3677 17.6738 20.4618 11.769 21.9316C11.6694 21.9574 11.5669 21.9703 11.464 21.97C11.1602 21.9675 10.8676 21.8544 10.6411 21.6518C10.4146 21.4493 10.2697 21.1712 10.2333 20.8696C10.197 20.5679 10.2717 20.2634 10.4436 20.0128C10.6155 19.7623 10.8728 19.5829 11.1673 19.5083C16.7352 18.1178 21.7902 15.1659 25.7373 11H23.6673C23.3358 11 23.0179 10.8683 22.7834 10.6339C22.549 10.3994 22.4173 10.0815 22.4173 9.74998C22.4173 9.41846 22.549 9.10052 22.7834 8.8661C23.0179 8.63168 23.3358 8.49998 23.6673 8.49998H28.544C28.6037 8.5073 28.6627 8.519 28.7207 8.53498C28.8067 8.54303 28.8916 8.56035 28.974 8.58665C29.0555 8.62016 29.1327 8.66324 29.204 8.71498C29.2572 8.73938 29.3084 8.76779 29.3573 8.79998C29.3707 8.81165 29.3757 8.82665 29.3873 8.83831C29.4507 8.90116 29.5066 8.97106 29.554 9.04665C29.6013 9.10373 29.6431 9.1651 29.679 9.22998C29.7037 9.29841 29.7232 9.36861 29.7373 9.43998C29.7636 9.52573 29.781 9.61398 29.789 9.70331C29.7931 9.71869 29.7964 9.73426 29.799 9.74998L29.7857 14.6233Z" fill="#4A3AFF"/>
</svg>
