<svg width="40" height="40" viewBox="0 0 40 40" fill="none" xmlns="http://www.w3.org/2000/svg">
<path fill-rule="evenodd" clip-rule="evenodd" d="M35 18.5117V12.06C35 11.1316 34.7414 10.2215 34.2534 9.43172C33.7653 8.64194 33.067 8.00364 32.2367 7.58833L21.49 2.21499C21.0273 1.98405 20.5172 1.86383 20 1.86383C19.4828 1.86383 18.9727 1.98405 18.51 2.21499L7.76333 7.58833C6.93299 8.00364 6.23467 8.64194 5.74661 9.43172C5.25856 10.2215 5.00003 11.1316 5 12.06V18.5117C5 20.765 5.54333 22.9833 6.58333 24.9817C8.76196 29.1659 11.8766 32.7927 15.685 35.5767L18.0333 37.2933C18.6041 37.7107 19.2929 37.9357 20 37.9357C20.7071 37.9357 21.3959 37.7107 21.9667 37.2933L24.315 35.5767C28.1234 32.7927 31.238 29.1676 33.4167 24.9833C34.4567 22.985 35 20.765 35 18.5117ZM14.1333 19.5117L17.4667 22.845C17.6213 22.9999 17.805 23.1228 18.0072 23.2066C18.2094 23.2905 18.4261 23.3337 18.645 23.3337C18.8639 23.3337 19.0806 23.2905 19.2828 23.2066C19.485 23.1228 19.6687 22.9999 19.8233 22.845L26.49 16.1783C26.7936 15.864 26.9616 15.443 26.9578 15.006C26.954 14.569 26.7787 14.151 26.4697 13.842C26.1607 13.5329 25.7427 13.3577 25.3057 13.3539C24.8687 13.3501 24.4477 13.5181 24.1333 13.8217L18.645 19.31L16.49 17.155C16.1757 16.8514 15.7547 16.6834 15.3177 16.6872C14.8807 16.691 14.4626 16.8663 14.1536 17.1753C13.8446 17.4843 13.6693 17.9023 13.6655 18.3393C13.6617 18.7763 13.8297 19.1973 14.1333 19.5117Z" fill="#4A3AFF"/>
</svg>
