<svg width="25" height="23" viewBox="0 0 25 23" fill="none" xmlns="http://www.w3.org/2000/svg">
<path fill-rule="evenodd" clip-rule="evenodd" d="M18.487 0C20.1465 0 21.7429 0.655875 22.9173 1.83274C24.0929 3.00712 24.75 4.59113 24.75 6.24937V16.0256C24.75 19.4782 21.9409 22.275 18.487 22.275H6.26175C2.80789 22.275 0 19.4782 0 16.0256V6.24937C0 2.79675 2.79551 0 6.26175 0H18.487ZM20.4572 8.09322L20.5562 7.99422C20.8519 7.63534 20.8519 7.11559 20.5426 6.75672C20.3706 6.57233 20.1342 6.45972 19.8879 6.43497C19.6281 6.42136 19.3806 6.50922 19.1937 6.68247L13.6138 11.1375C12.8961 11.7327 11.8677 11.7327 11.1388 11.1375L5.57005 6.68247C5.18519 6.39784 4.65307 6.43497 4.33255 6.76909C3.99843 7.10322 3.9613 7.63534 4.24469 8.00659L4.4068 8.16747L10.0374 12.5606C10.7304 13.1051 11.5707 13.4021 12.4506 13.4021C13.3279 13.4021 14.1831 13.1051 14.8748 12.5606L20.4572 8.09322Z" fill="#4A3AFF"/>
</svg>
