<svg width="25" height="30" viewBox="0 0 25 30" fill="none" xmlns="http://www.w3.org/2000/svg">
<path fill-rule="evenodd" clip-rule="evenodd" d="M0 12.1647C0 5.43742 5.62168 0 12.4217 0C19.2408 0 24.8625 5.43742 24.8625 12.1647C24.8625 15.5547 23.6296 18.7019 21.6004 21.3694C19.3617 24.3119 16.6025 26.8756 13.4967 28.8879C12.7859 29.353 12.1444 29.3881 11.3643 28.8879C8.2408 26.8756 5.48158 24.3119 3.26211 21.3694C1.2314 18.7019 0 15.5547 0 12.1647ZM8.32812 12.5431C8.32812 14.7968 10.1671 16.5693 12.422 16.5693C14.6783 16.5693 16.535 14.7968 16.535 12.5431C16.535 10.307 14.6783 8.44824 12.422 8.44824C10.1671 8.44824 8.32812 10.307 8.32812 12.5431Z" fill="#4A3AFF"/>
</svg>
