<svg width="24" height="24" viewBox="0 0 24 24" fill="none" xmlns="http://www.w3.org/2000/svg">
<g clip-path="url(#clip0_45_1901)">
<path d="M12 0.75C5.79675 0.75 0.75 5.79675 0.75 12C0.75 14.1825 1.3755 16.287 2.5635 18.114L0.81075 22.2045C0.751727 22.3423 0.735334 22.4946 0.763686 22.6417C0.792038 22.7889 0.863835 22.9242 0.969815 23.0302C1.07579 23.1362 1.2111 23.208 1.35827 23.2363C1.50544 23.2647 1.65773 23.2483 1.7955 23.1893L5.886 21.4357C7.70412 22.6224 9.82891 23.2529 12 23.25C18.2033 23.25 23.25 18.2033 23.25 12C23.25 5.79675 18.2033 0.75 12 0.75ZM17.775 16.0275C17.775 16.0275 16.839 17.2267 16.1625 17.5072C14.445 18.2183 12.0188 17.5072 9.255 14.7443C6.49275 11.9813 5.781 9.555 6.49275 7.83675C6.77325 7.16025 7.97325 6.22575 7.97325 6.22575C8.13858 6.1035 8.34173 6.04347 8.54696 6.05623C8.75218 6.06898 8.94633 6.15371 9.09525 6.2955L10.4528 7.653C10.5926 7.7939 10.671 7.98437 10.671 8.18287C10.671 8.38138 10.5926 8.57185 10.4528 8.71275L9.6 9.564C9.6 9.564 9.255 10.599 11.3272 12.672C13.3988 14.7443 14.4352 14.3993 14.4352 14.3993L15.2865 13.5472C15.4274 13.4072 15.6181 13.3286 15.8168 13.3286C16.0154 13.3286 16.2061 13.4072 16.347 13.5472L17.7045 14.9047C17.9955 15.1965 18.027 15.7013 17.7735 16.0267L17.775 16.0275Z" fill="#4A3AFF"/>
</g>
<defs>
<clipPath id="clip0_45_1901">
<rect width="24" height="24" fill="white"/>
</clipPath>
</defs>
</svg>
