<svg width="40" height="40" viewBox="0 0 40 40" fill="none" xmlns="http://www.w3.org/2000/svg">
<path d="M14.9997 3.33325H24.9997C33.333 3.33325 36.6663 6.66659 36.6663 14.9999V24.9999C36.6663 33.3333 33.333 36.6666 24.9997 36.6666H14.9997C6.66634 36.6666 3.33301 33.3333 3.33301 24.9999V14.9999C3.33301 6.66659 6.66634 3.33325 14.9997 3.33325Z" stroke="white" stroke-width="2.56177" stroke-linecap="round" stroke-linejoin="round"/>
<path d="M14.2832 25.45L25.1832 14.55" stroke="white" stroke-width="2.56177" stroke-linecap="round" stroke-linejoin="round"/>
<path d="M14.966 17.2833C16.0982 17.2833 17.016 16.3656 17.016 15.2334C17.016 14.1012 16.0982 13.1833 14.966 13.1833C13.8339 13.1833 12.916 14.1012 12.916 15.2334C12.916 16.3656 13.8339 17.2833 14.966 17.2833Z" stroke="white" stroke-width="2.56177" stroke-linecap="round" stroke-linejoin="round"/>
<path d="M25.8664 26.8165C26.9986 26.8165 27.9164 25.8987 27.9164 24.7665C27.9164 23.6343 26.9986 22.7166 25.8664 22.7166C24.7342 22.7166 23.8164 23.6343 23.8164 24.7665C23.8164 25.8987 24.7342 26.8165 25.8664 26.8165Z" stroke="white" stroke-width="2.56177" stroke-linecap="round" stroke-linejoin="round"/>
</svg>
