<svg width="40" height="40" viewBox="0 0 40 40" fill="none" xmlns="http://www.w3.org/2000/svg">
<path d="M34.0167 11.5999V14.6499C34.0167 15.7166 33.5167 16.7166 32.6501 17.3332L14.3167 30.7666C13.1334 31.6332 11.5167 31.6332 10.3501 30.7499L7.95007 28.9499C6.86673 28.1332 5.9834 26.3666 5.9834 25.0166V11.5999C5.9834 9.73324 7.41673 7.66657 9.16673 7.01657L18.2834 3.5999C19.2334 3.2499 20.7667 3.2499 21.7167 3.5999L30.8334 7.01657C32.5834 7.66657 34.0167 9.73324 34.0167 11.5999Z" fill="#4A3AFF"/>
<path d="M31.367 20.5667C32.467 19.7667 34.017 20.55 34.017 21.9167V25.05C34.017 26.4 33.1337 28.15 32.0503 28.9667L22.9337 35.7834C22.1337 36.3667 21.067 36.6667 20.0003 36.6667C18.9337 36.6667 17.867 36.3667 17.067 35.7667L15.6837 34.7334C14.7837 34.0667 14.7837 32.7167 15.7003 32.05L31.367 20.5667Z" fill="#4A3AFF"/>
</svg>
