<svg width="40" height="40" viewBox="0 0 40 40" fill="none" xmlns="http://www.w3.org/2000/svg">
<path d="M12.917 5.83325V3.33325C12.917 2.64992 12.3503 2.08325 11.667 2.08325C10.9837 2.08325 10.417 2.64992 10.417 3.33325V5.93325C10.8337 5.88325 11.217 5.83325 11.667 5.83325H12.917Z" fill="#4A3AFF"/>
<path d="M26.25 5.93325V3.33325C26.25 2.64992 25.6833 2.08325 25 2.08325C24.3167 2.08325 23.75 2.64992 23.75 3.33325V5.83325H25C25.45 5.83325 25.8333 5.88325 26.25 5.93325Z" fill="#4A3AFF"/>
<path d="M35.483 24.9499C34.1997 23.9333 32.583 23.3333 30.833 23.3333C29.083 23.3333 27.433 23.9499 26.1497 24.9833C24.4163 26.3499 23.333 28.4833 23.333 30.8333C23.333 32.2333 23.733 33.5833 24.4163 34.6833C24.9497 35.5499 25.633 36.3166 26.4497 36.8999C27.683 37.7999 29.183 38.3333 30.833 38.3333C32.733 38.3333 34.4497 37.6332 35.7663 36.4666C36.3497 35.9832 36.8497 35.3833 37.2497 34.6999C37.933 33.5833 38.333 32.2333 38.333 30.8333C38.333 28.4499 37.2163 26.3166 35.483 24.9499ZM30.833 34.3999C30.833 32.4333 29.233 30.8333 27.2663 30.8333C29.233 30.8333 30.833 29.2333 30.833 27.2666C30.833 29.2333 32.433 30.8333 34.3997 30.8333C32.433 30.8333 30.833 32.4333 30.833 34.3999Z" fill="#4A3AFF"/>
<path d="M26.2497 5.93325V8.33325C26.2497 9.01659 25.683 9.58325 24.9997 9.58325C24.3163 9.58325 23.7497 9.01659 23.7497 8.33325V5.83325H12.9163V8.33325C12.9163 9.01659 12.3497 9.58325 11.6663 9.58325C10.983 9.58325 10.4163 9.01659 10.4163 8.33325V5.93325C5.49967 6.38325 3.33301 9.54992 3.33301 14.1666V28.3333C3.33301 33.3333 5.83301 36.6666 11.6663 36.6666H18.5497C19.8163 36.6666 20.6663 35.2499 20.3497 34.0166C20.1163 33.1166 19.9997 32.1833 19.9997 31.2499C19.9997 27.7833 21.5497 24.5833 24.233 22.4666C26.183 20.8833 28.683 19.9999 31.2497 19.9999H31.3163C32.3663 19.9999 33.333 19.2333 33.333 18.1833V14.1666C33.333 9.54992 31.1663 6.38325 26.2497 5.93325ZM14.9997 27.9166H11.6663C10.983 27.9166 10.4163 27.3499 10.4163 26.6666C10.4163 25.9833 10.983 25.4166 11.6663 25.4166H14.9997C15.683 25.4166 16.2497 25.9833 16.2497 26.6666C16.2497 27.3499 15.683 27.9166 14.9997 27.9166ZM19.9997 19.5833H11.6663C10.983 19.5833 10.4163 19.0166 10.4163 18.3333C10.4163 17.6499 10.983 17.0833 11.6663 17.0833H19.9997C20.683 17.0833 21.2497 17.6499 21.2497 18.3333C21.2497 19.0166 20.683 19.5833 19.9997 19.5833Z" fill="#4A3AFF"/>
</svg>
