<svg width="40" height="40" viewBox="0 0 40 40" fill="none" xmlns="http://www.w3.org/2000/svg">
<path d="M30 3.33325H10C7.23333 3.33325 5 5.54992 5 8.28325V26.4666C5 29.1999 7.23333 31.4166 10 31.4166H11.2667C12.6 31.4166 13.8667 31.9333 14.8 32.8666L17.65 35.6833C18.95 36.9666 21.0667 36.9666 22.3667 35.6833L25.2167 32.8666C26.15 31.9333 27.4333 31.4166 28.75 31.4166H30C32.7667 31.4166 35 29.1999 35 26.4666V8.28325C35 5.54992 32.7667 3.33325 30 3.33325ZM17.3 21.6833C17.9833 21.6833 18.55 22.2499 18.55 22.9333C18.55 23.6166 17.9833 24.1833 17.3 24.1833H12.8333C12.1 24.1833 11.4167 23.8333 10.9833 23.2333C10.5667 22.6666 10.4667 21.9666 10.6667 21.2999C11.25 19.5166 12.6833 18.5499 13.95 17.6833C15.2833 16.7833 16.0333 16.2166 16.0333 15.2499C16.0333 14.3833 15.3333 13.6833 14.4667 13.6833C13.6 13.6833 12.9167 14.3999 12.9167 15.2666C12.9167 15.9499 12.35 16.5166 11.6667 16.5166C10.9833 16.5166 10.4167 15.9499 10.4167 15.2666C10.4167 13.0333 12.2333 11.1999 14.4833 11.1999C16.7333 11.1999 18.55 13.0166 18.55 15.2666C18.55 17.6166 16.7833 18.8166 15.3667 19.7833C14.4833 20.3833 13.65 20.9499 13.2333 21.6999H17.3V21.6833ZM28.3333 21.7999H27.9833V22.9499C27.9833 23.6333 27.4167 24.1999 26.7333 24.1999C26.05 24.1999 25.4833 23.6333 25.4833 22.9499V21.7999H22.2167C22.2167 21.7999 22.2167 21.7999 22.2 21.7999C21.3833 21.7999 20.6333 21.3666 20.2167 20.6666C19.8 19.9499 19.8 19.0666 20.2167 18.3666C21.35 16.4166 22.6667 14.1999 23.8667 12.2666C24.4 11.4166 25.4167 11.0333 26.3667 11.2999C27.3167 11.5833 27.9833 12.4499 27.9667 13.4499V19.3166H28.3333C29.0167 19.3166 29.5833 19.8833 29.5833 20.5666C29.5833 21.2499 29.0167 21.7999 28.3333 21.7999Z" fill="#4A3AFF"/>
<path d="M25.4831 19.2999V14.3999C24.4997 15.9999 23.4831 17.7166 22.5664 19.2832H25.4831V19.2999Z" fill="#4A3AFF"/>
</svg>
