<svg width="13" height="14" viewBox="0 0 13 14" fill="none" xmlns="http://www.w3.org/2000/svg">
<path d="M5.55969 1.59811C5.87803 0.718536 7.12197 0.718537 7.44031 1.59811L8.32298 4.03697C8.46216 4.42152 8.82147 4.68257 9.2302 4.69611L11.8225 4.78193C12.7574 4.81288 13.1418 5.99595 12.4036 6.57051L10.3569 8.16362C10.0341 8.41482 9.8969 8.83721 10.0103 9.23013L10.7298 11.722C10.9892 12.6207 9.98286 13.3519 9.20831 12.8274L7.06069 11.3732C6.72206 11.1439 6.27794 11.1439 5.93931 11.3732L3.79168 12.8274C3.01714 13.3519 2.01077 12.6207 2.27023 11.722L2.98966 9.23013C3.1031 8.83721 2.96585 8.41482 2.64313 8.16362L0.5964 6.5705C-0.141756 5.99594 0.242646 4.81288 1.17754 4.78193L3.7698 4.69611C4.17853 4.68257 4.53784 4.42152 4.67702 4.03697L5.55969 1.59811Z" fill="white"/>
</svg>
